<svg xmlns="http://www.w3.org/2000/svg" width="900" height="350"><rect width="100%" height="100%" fill="white"/><text x="450" y="20" text-anchor="middle">TypingMarioGame host RSS after warm-up</text><line x1="65.0" y1="300" x2="865" y2="300" stroke="black"/><polyline points="74.47,300.00 83.94,287.55 93.41,267.45 102.88,262.66 112.35,262.02 121.82,254.36 131.29,234.57 140.75,222.13 150.22,218.62 159.69,218.94 169.16,120.96 178.63,61.28 188.10,155.74 197.57,163.40 207.04,154.79 216.51,141.70 225.98,155.11 235.45,154.79 244.92,154.47 254.39,143.62 263.86,133.40 273.33,109.15 282.79,133.40 292.26,118.40 301.73,131.49 311.20,131.17 320.67,130.85 330.14,130.53 339.61,131.17 349.08,128.94 358.55,128.94 368.02,128.94 377.49,128.62 386.96,128.30 396.43,125.11 405.90,127.02 415.36,126.70 424.83,111.70 434.30,125.11 443.77,124.79 453.24,124.79 462.71,123.19 472.18,123.83 481.65,123.19 491.12,122.55 500.59,122.55 510.06,121.91 519.53,121.28 529.00,120.96 538.47,120.32 547.94,118.40 557.40,109.15 566.87,114.57 576.34,114.26 585.81,90.32 595.28,112.02 604.75,111.38 614.22,110.43 623.69,110.11 633.16,109.47 642.63,109.15 652.10,109.15 661.57,108.51 671.04,108.19 680.51,106.91 689.98,106.28 699.44,105.96 708.91,105.32 718.38,105.00 727.85,104.68 737.32,104.36 746.79,104.04 756.26,30.00 765.73,94.47 775.20,94.47 784.67,94.15 794.14,93.83 803.61,70.53 813.08,92.87 822.55,92.55 832.02,91.60 841.48,91.28 850.95,91.28 860.42,90.32 865.00,90.32" fill="none" stroke="#1565c0" stroke-width="2"/><text x="450" y="335" text-anchor="middle">fixed-step updates (0-5069), RSS 153.28-166.50 MiB</text></svg>