<svg xmlns="http://www.w3.org/2000/svg" width="900" height="350"><rect width="100%" height="100%" fill="white"/><text x="450" y="20" text-anchor="middle">TypingMarioGame host RSS after warm-up</text><line x1="65.0" y1="300" x2="865" y2="300" stroke="black"/><polyline points="74.47,300.00 83.94,288.18 93.41,269.70 102.88,265.15 112.35,264.55 121.82,257.58 131.29,238.79 140.75,226.97 150.22,223.64 159.69,223.94 169.16,127.88 178.63,55.15 188.10,148.79 197.57,171.21 207.04,163.03 216.51,147.88 225.98,163.03 235.45,162.73 244.92,162.73 254.39,152.42 263.86,142.73 273.33,119.70 282.79,142.73 292.26,129.39 301.73,140.00 311.20,139.39 320.67,139.09 330.14,139.09 339.61,140.61 349.08,139.09 358.55,138.48 368.02,138.48 377.49,137.88 386.96,137.58 396.43,135.15 405.90,135.15 415.36,134.55 424.83,118.18 434.30,132.42 443.77,132.12 453.24,131.52 462.71,130.61 472.18,130.61 481.65,130.30 491.12,130.00 500.59,129.39 510.06,128.79 519.53,128.18 529.00,127.88 538.47,127.58 547.94,123.33 557.40,117.58 566.87,122.12 576.34,121.52 585.81,99.39 595.28,119.70 604.75,119.70 614.22,109.70 623.69,109.39 633.16,109.09 642.63,108.79 652.10,108.79 661.57,108.18 671.04,107.88 680.51,107.27 689.98,107.27 699.44,106.97 708.91,106.67 718.38,106.36 727.85,106.06 737.32,105.76 746.79,105.45 756.26,78.79 765.73,30.00 775.20,105.15 784.67,104.85 794.14,104.55 803.61,82.73 813.08,104.85 822.55,104.55 832.02,103.64 841.48,103.33 850.95,103.03 860.42,102.12 865.00,102.12" fill="none" stroke="#1565c0" stroke-width="2"/><text x="450" y="335" text-anchor="middle">fixed-step updates (0-5069), RSS 153.44-167.36 MiB</text></svg>