<svg xmlns="http://www.w3.org/2000/svg" width="900" height="350"><rect width="100%" height="100%" fill="white"/><text x="450" y="20" text-anchor="middle">TypingMarioGame host RSS after warm-up</text><line x1="65.0" y1="300" x2="865" y2="300" stroke="black"/><polyline points="74.47,300.00 83.94,287.57 93.41,267.80 102.88,263.02 112.35,262.70 121.82,255.69 131.29,236.56 140.75,222.54 150.22,219.35 159.69,219.35 169.16,122.13 178.63,55.18 188.10,154.96 197.57,163.88 207.04,155.60 216.51,139.98 225.98,155.91 235.45,155.60 244.92,155.28 254.39,144.76 263.86,133.92 273.33,105.87 282.79,134.24 292.26,116.71 301.73,133.28 311.20,132.96 320.67,132.64 330.14,132.33 339.61,131.69 349.08,130.73 358.55,130.41 368.02,130.09 377.49,129.78 386.96,129.46 396.43,128.18 405.90,127.86 415.36,127.23 424.83,103.32 434.30,123.72 443.77,123.40 453.24,123.08 462.71,122.44 472.18,122.44 481.65,121.49 491.12,121.17 500.59,120.85 510.06,120.53 519.53,119.89 529.00,119.26 538.47,118.94 547.94,113.20 557.40,107.46 566.87,113.20 576.34,112.88 585.81,86.10 595.28,110.65 604.75,110.01 614.22,109.06 623.69,108.74 633.16,108.42 642.63,108.42 652.10,108.10 661.57,107.78 671.04,107.46 680.51,106.82 689.98,106.51 699.44,106.19 708.91,96.94 718.38,95.35 727.85,95.35 737.32,95.03 746.79,94.71 756.26,30.00 765.73,95.35 775.20,95.03 784.67,94.71 794.14,94.39 803.61,68.89 813.08,93.75 822.55,93.44 832.02,92.48 841.48,92.16 850.95,92.16 860.42,91.20 865.00,91.20" fill="none" stroke="#1565c0" stroke-width="2"/><text x="450" y="335" text-anchor="middle">fixed-step updates (0-5069), RSS 153.28-166.52 MiB</text></svg>