<svg xmlns="http://www.w3.org/2000/svg" width="900" height="350"><rect width="100%" height="100%" fill="white"/><text x="450" y="20" text-anchor="middle">TypingMarioGame host RSS after warm-up</text><line x1="65.0" y1="300" x2="865" y2="300" stroke="black"/><polyline points="74.47,300.00 83.94,287.52 93.41,266.09 102.88,261.29 112.35,260.65 121.82,253.29 131.29,233.46 140.75,222.58 150.22,217.46 159.69,216.82 169.16,118.61 178.63,39.60 188.10,149.96 197.57,162.44 207.04,153.48 216.51,140.05 225.98,153.80 235.45,153.48 244.92,153.16 254.39,141.97 263.86,131.73 273.33,107.42 282.79,131.73 292.26,119.57 301.73,128.85 311.20,128.21 320.67,127.89 330.14,127.89 339.61,128.21 349.08,127.25 358.55,127.57 368.02,127.25 377.49,126.29 386.96,126.29 396.43,125.65 405.90,124.37 415.36,124.05 424.83,106.78 434.30,120.85 443.77,120.53 453.24,120.21 462.71,119.57 472.18,119.57 481.65,118.61 491.12,118.29 500.59,117.65 510.06,117.01 519.53,116.69 529.00,116.37 538.47,116.05 547.94,113.82 557.40,103.26 566.87,110.62 576.34,109.98 585.81,81.18 595.28,107.74 604.75,107.42 614.22,106.46 623.69,106.14 633.16,105.82 642.63,105.50 652.10,105.18 661.57,104.86 671.04,104.54 680.51,104.54 689.98,103.90 699.44,103.58 708.91,94.30 718.38,92.70 727.85,92.70 737.32,92.38 746.79,92.06 756.26,30.00 765.73,92.70 775.20,92.38 784.67,92.06 794.14,92.06 803.61,77.67 813.08,91.10 822.55,90.78 832.02,89.82 841.48,89.50 850.95,89.50 860.42,88.54 865.00,88.54" fill="none" stroke="#1565c0" stroke-width="2"/><text x="450" y="335" text-anchor="middle">fixed-step updates (0-5069), RSS 153.11-166.30 MiB</text></svg>