<svg xmlns="http://www.w3.org/2000/svg" width="900" height="350"><rect width="100%" height="100%" fill="white"/><text x="450" y="20" text-anchor="middle">TypingMarioGame host RSS after warm-up</text><line x1="65.0" y1="300" x2="865" y2="300" stroke="black"/><polyline points="74.47,300.00 83.94,287.33 93.41,267.51 102.88,262.64 112.35,261.99 121.82,254.51 131.29,234.37 140.75,221.70 150.22,218.12 159.69,176.21 169.16,82.64 178.63,210.00 188.10,188.88 197.57,162.24 207.04,153.14 216.51,140.79 225.98,146.64 235.45,153.14 244.92,152.82 254.39,141.77 263.86,131.05 273.33,106.35 282.79,131.05 292.26,116.10 301.73,128.45 311.20,127.80 320.67,127.47 330.14,127.47 339.61,128.77 349.08,126.82 358.55,126.82 368.02,126.82 377.49,126.17 386.96,125.52 396.43,125.20 405.90,124.22 415.36,123.90 424.83,111.23 434.30,122.92 443.77,122.27 453.24,122.27 462.71,121.95 472.18,121.62 481.65,120.97 491.12,120.65 500.59,120.00 510.06,119.35 519.53,118.70 529.00,118.70 538.47,118.05 547.94,112.20 557.40,105.38 566.87,112.20 576.34,111.55 585.81,90.43 595.28,109.28 604.75,108.95 614.22,108.30 623.69,107.98 633.16,107.33 642.63,107.00 652.10,106.68 661.57,106.35 671.04,106.03 680.51,104.40 689.98,104.08 699.44,103.43 708.91,103.10 718.38,102.45 727.85,102.45 737.32,101.81 746.79,101.16 756.26,30.00 765.73,91.41 775.20,91.08 784.67,91.08 794.14,90.76 803.61,76.79 813.08,89.78 822.55,89.46 832.02,88.48 841.48,88.16 850.95,87.83 860.42,86.86 865.00,86.86" fill="none" stroke="#1565c0" stroke-width="2"/><text x="450" y="335" text-anchor="middle">fixed-step updates (0-5069), RSS 153.53-166.52 MiB</text></svg>