<svg xmlns="http://www.w3.org/2000/svg" width="900" height="350"><rect width="100%" height="100%" fill="white"/><text x="450" y="20" text-anchor="middle">TypingMarioGame host RSS after warm-up</text><line x1="65.0" y1="300" x2="865" y2="300" stroke="black"/><polyline points="74.47,300.00 83.94,287.49 93.41,267.61 102.88,262.80 112.35,262.16 121.82,254.47 131.29,234.58 140.75,222.72 150.22,218.55 159.69,218.87 169.16,127.48 178.63,62.07 188.10,157.95 197.57,163.08 207.04,154.42 216.51,140.63 225.98,154.42 235.45,154.10 244.92,154.10 254.39,143.19 263.86,132.93 273.33,110.49 282.79,132.93 292.26,119.79 301.73,130.37 311.20,130.05 320.67,129.73 330.14,129.41 339.61,130.69 349.08,128.76 358.55,128.44 368.02,128.44 377.49,128.12 386.96,127.80 396.43,126.52 405.90,126.20 415.36,125.88 424.83,109.85 434.30,122.99 443.77,122.67 453.24,122.35 462.71,120.43 472.18,121.39 481.65,120.75 491.12,120.11 500.59,120.11 510.06,119.47 519.53,118.82 529.00,118.50 538.47,117.86 547.94,112.09 557.40,106.32 566.87,112.41 576.34,112.09 585.81,90.61 595.28,109.85 604.75,109.20 614.22,108.24 623.69,107.92 633.16,107.28 642.63,106.96 652.10,106.96 661.57,106.32 671.04,106.00 680.51,105.36 689.98,105.04 699.44,104.71 708.91,95.42 718.38,93.81 727.85,93.81 737.32,93.49 746.79,93.17 756.26,30.00 765.73,93.81 775.20,93.81 784.67,93.49 794.14,93.17 803.61,76.50 813.08,92.21 822.55,91.89 832.02,90.93 841.48,90.61 850.95,90.61 860.42,89.64 865.00,89.64" fill="none" stroke="#1565c0" stroke-width="2"/><text x="450" y="335" text-anchor="middle">fixed-step updates (0-5069), RSS 153.31-166.47 MiB</text></svg>