<svg xmlns="http://www.w3.org/2000/svg" width="900" height="350"><rect width="100%" height="100%" fill="white"/><text x="450" y="20" text-anchor="middle">TypingMarioGame host RSS after warm-up</text><line x1="65.0" y1="300" x2="865" y2="300" stroke="black"/><polyline points="74.47,300.00 83.94,286.82 93.41,265.19 102.88,260.13 112.35,259.45 121.82,251.34 131.29,230.73 140.75,218.22 150.22,213.49 159.69,213.83 169.16,109.75 178.63,30.00 188.10,132.05 197.57,153.68 207.04,145.91 216.51,133.40 225.98,145.91 235.45,145.91 244.92,145.57 254.39,134.08 263.86,123.27 273.33,98.26 282.79,123.27 292.26,107.38 301.73,122.25 311.20,121.58 320.67,121.58 330.14,121.24 339.61,120.90 349.08,119.55 358.55,118.87 368.02,118.54 377.49,118.20 386.96,117.86 396.43,114.14 405.90,116.51 415.36,116.17 424.83,99.27 434.30,115.49 443.77,114.82 453.24,114.48 462.71,96.91 472.18,113.47 481.65,112.79 491.12,112.45 500.59,111.78 510.06,111.10 519.53,110.43 529.00,110.43 538.47,110.09 547.94,106.71 557.40,100.63 566.87,103.67 576.34,102.99 585.81,81.70 595.28,100.63 604.75,100.29 614.22,98.94 623.69,98.60 633.16,97.92 642.63,97.58 652.10,97.25 661.57,96.57 671.04,96.23 680.51,94.88 689.98,94.54 699.44,94.21 708.91,87.11 718.38,82.72 727.85,82.72 737.32,82.38 746.79,82.04 756.26,49.94 765.73,82.72 775.20,82.72 784.67,82.38 794.14,81.70 803.61,56.02 813.08,81.03 822.55,80.69 832.02,79.67 841.48,79.34 850.95,79.34 860.42,77.98 865.00,77.98" fill="none" stroke="#1565c0" stroke-width="2"/><text x="450" y="335" text-anchor="middle">fixed-step updates (0-5069), RSS 153.14-165.63 MiB</text></svg>