<svg xmlns="http://www.w3.org/2000/svg" width="900" height="350"><rect width="100%" height="100%" fill="white"/><text x="450" y="20" text-anchor="middle">TypingMarioGame host RSS after warm-up</text><line x1="65.0" y1="300" x2="865" y2="300" stroke="black"/><polyline points="74.47,300.00 83.94,287.88 93.41,266.44 102.88,261.78 112.35,261.16 121.82,254.02 131.29,234.75 140.75,225.12 150.22,219.22 159.69,207.72 169.16,107.05 178.63,204.93 188.10,185.97 197.57,166.09 207.04,157.08 216.51,137.19 225.98,143.41 235.45,157.08 244.92,156.77 254.39,144.03 263.86,136.26 273.33,112.65 282.79,136.26 292.26,117.93 301.73,133.77 311.20,133.15 320.67,133.15 330.14,132.84 339.61,134.40 349.08,133.15 358.55,132.53 368.02,132.53 377.49,131.91 386.96,131.60 396.43,127.25 405.90,130.36 415.36,129.74 424.83,112.34 434.30,128.18 443.77,127.87 453.24,127.87 462.71,124.14 472.18,127.87 481.65,127.25 491.12,126.94 500.59,126.32 510.06,126.01 519.53,125.39 529.00,125.07 538.47,124.76 547.94,122.59 557.40,111.40 566.87,119.48 576.34,118.86 585.81,117.93 595.28,116.69 604.75,116.38 614.22,115.44 623.69,115.13 633.16,114.51 642.63,114.20 652.10,113.89 661.57,113.58 671.04,112.96 680.51,111.71 689.98,111.40 699.44,110.78 708.91,110.47 718.38,109.85 727.85,109.54 737.32,109.23 746.79,108.30 756.26,30.00 765.73,98.67 775.20,98.35 784.67,98.35 794.14,98.04 803.61,73.81 813.08,97.11 822.55,96.80 832.02,95.87 841.48,95.56 850.95,95.56 860.42,94.63 865.00,94.63" fill="none" stroke="#1565c0" stroke-width="2"/><text x="450" y="335" text-anchor="middle">fixed-step updates (0-5069), RSS 153.27-166.84 MiB</text></svg>